<?xml version="1.0" encoding="UTF-8"?>
<svg id="Layer_2" data-name="Layer 2" xmlns="http://www.w3.org/2000/svg" viewBox="0 0 460.35 188.07">
  <defs>
    <style>
      .cls-1 {
        fill: #0092ff;
      }

      .cls-1, .cls-2 {
        stroke-width: 0px;
      }

      .cls-2 {
        fill: #191d40;
      }
    </style>
  </defs>
  <g id="Layer_1-2" data-name="Layer 1">
    <g>
      <g>
        <polygon class="cls-2" points="231.2 168.2 252.77 168.2 252.77 19.84 231.2 25.52 231.2 168.2"/>
        <polygon class="cls-2" points="295.88 62.89 295.88 168.2 274.35 168.2 274.35 68.57 295.88 62.89"/>
        <path class="cls-2" d="M390.06,138.24c0,2.64-.27,5.13-.82,7.47-1.5,6.53-5.1,11.89-10.77,16.09-7.69,5.72-17.41,8.54-29.05,8.54-10.29,0-19.11-2.15-26.45-6.45-3.61-2.08-6.71-4.57-9.33-7.46-1.36-1.49-2.58-3.07-3.68-4.77l16.51-16.51c3.62,9.72,11.31,14.56,22.95,14.56s17.69-3.9,17.69-11.64c0-3.34-1.92-6.05-5.71-8.14-3.85-2.1-8.48-3.85-13.96-5.31-2.69-.72-5.39-1.5-8.11-2.33-2.81-.86-5.63-1.78-8.45-2.76-5.61-1.98-10.24-5.19-14.08-9.72-3.84-4.52-5.71-10.23-5.71-17.18,0-9.55,3.62-17.3,10.91-23.13,7.29-5.82,16.33-8.76,27.19-8.76,8.59,0,16.27,1.92,23,5.77,4.93,2.75,9,6.32,12.23,10.69l-15.7,15.7c-3.64-7.86-10.17-11.75-19.53-11.75-4.3,0-7.92.96-10.86,2.83-2.88,1.87-4.35,4.63-4.35,8.25s1.92,6.22,5.71,8.2c3.85,2.04,8.48,3.79,13.96,5.26.6.15,1.21.31,1.81.47,4.89,1.31,9.82,2.85,14.76,4.61,5.6,1.92,10.29,5.25,14.07,9.9,3.85,4.63,5.77,10.51,5.77,17.58Z"/>
        <path class="cls-2" d="M435.59,138.35c0,4.13.96,7.07,2.83,8.87,1.87,1.75,4.64,2.77,8.25,3,3.67.17,8.25.17,13.68-.11v19.39c-16.45,1.98-28.32.57-35.5-4.3-7.18-4.86-10.8-13.85-10.8-26.85v-54.66h-18.37v-20.8h18.37V25.52l21.54-5.65v43.02h24.76v20.8h-24.76v54.66Z"/>
        <path class="cls-2" d="M285.12,19.84c-7.41,0-13.42,6.01-13.42,13.42s6.01,13.42,13.42,13.42,13.42-6.01,13.42-13.42-6.01-13.42-13.42-13.42Z"/>
      </g>
      <path class="cls-1" d="M174.94,62.35c-9.67-9.67-23.01-14.25-36.46-12.8,1.49-13.45-3.13-26.79-12.8-36.46C117.25,4.65,105.98,0,94.02,0s-23.23,4.65-31.67,13.09c-9.67,9.67-14.29,22.98-12.8,36.43-13.89-1.56-26.9,3.27-36.46,12.83-17.45,17.49-17.45,45.88,0,63.33,8.43,8.43,19.67,13.09,31.67,13.09,1.56,0,3.16-.07,4.8-.25-1.49,13.45,3.13,26.76,12.8,36.46,8.47,8.43,19.7,13.09,31.67,13.09s23.23-4.65,31.67-13.09c8.47-8.47,13.12-19.7,13.12-31.67,0-1.6-.11-3.2-.29-4.8,1.64.18,3.2.25,4.76.25,12,0,23.23-4.62,31.67-13.09,8.47-8.43,13.12-19.67,13.12-31.67s-4.65-23.19-13.12-31.67ZM76.38,27.12c9.74-9.71,25.56-9.71,35.26,0,9.71,9.74,9.71,25.52,0,35.23l-17.63,17.63-17.63-17.63c-9.71-9.71-9.71-25.52,0-35.23ZM44.75,118.92c-6.69,0-12.94-2.58-17.63-7.27-9.71-9.71-9.71-25.52,0-35.23,4.73-4.73,10.98-7.31,17.63-7.31s12.91,2.58,17.6,7.31l17.63,17.6-17.63,17.63c-4.69,4.69-10.94,7.27-17.6,7.27ZM111.65,160.91c-9.74,9.71-25.52,9.71-35.23,0-9.74-9.71-9.74-25.52,0-35.23l17.6-17.6,17.63,17.6c4.69,4.73,7.27,10.98,7.27,17.63s-2.58,12.91-7.27,17.6ZM160.91,111.65c-9.71,9.71-25.52,9.71-35.23,0l-17.63-17.63,17.63-17.6c9.71-9.71,25.52-9.71,35.23,0,4.69,4.69,7.31,10.94,7.31,17.6s-2.62,12.91-7.31,17.63Z"/>
    </g>
  </g>
</svg>